<svg xmlns="http://www.w3.org/2000/svg" width="200" height="200" viewBox="0 0 200 200">
  <defs>
    <style>
      .cls-1 {
        fill: #fb061d;
        stroke: #f71010;
        stroke-width: 1px;
        fill-rule: evenodd;
      }
    </style>
  </defs>
  <path id="シェイプ_42_1" data-name="シェイプ 42 1" class="cls-1" d="M0.554,83.753a17.751,17.751,0,0,0,2.214,5.724,9.493,9.493,0,0,0,3.887,3.45c0.852,0.41,1.755.714,2.613,1.112,1.47,0.682,2.952,1.347,4.376,2.118,1.7,0.922,1.743,1.008,3.419-.55a12.066,12.066,0,0,0,3.825-5.556,12.826,12.826,0,0,1,.8-1.849,11.763,11.763,0,0,1,5.8-5.964c1.586-.748,3.116-1.613,4.666-2.434a0.665,0.665,0,0,0,.13-1.028c-3.231-2.66-5.1-6.217-6.695-9.958q-1.106-2.6-2.239-5.18a1.091,1.091,0,0,0-1.379-.475,12.372,12.372,0,0,0-4.5,2.683,81.293,81.293,0,0,1-8.245,6.541,33.93,33.93,0,0,0-6.233,5.76A26.041,26.041,0,0,0,.94,81.13,3.871,3.871,0,0,0,.554,83.753ZM25.935,62.994q1.794,4.276,3.756,8.484A14.112,14.112,0,0,0,34,76.753c1.179,0.9,2.324,1.3,3.714.478,0.695-.412,1.457-0.713,2.193-1.056A50.375,50.375,0,0,1,49.457,72.8c1.053-.251,2.094-0.553,3.137-0.847a1.607,1.607,0,0,0,.782-1.3,6.525,6.525,0,0,0-1.366-4.137A17.429,17.429,0,0,0,49.857,64.1c-3.123-2.735-4.051-6.267-3.8-10.194a106.52,106.52,0,0,1,1.439-14.026c0.1-.527.256-1.044,0.365-1.569a7.243,7.243,0,0,1,4.147-5.166A11.69,11.69,0,0,1,62.571,32.7a51.507,51.507,0,0,1,4.671,2.444,40.655,40.655,0,0,0,7.711,3.574,54.627,54.627,0,0,1,11.3,5.455q1.9,1.167,3.813,2.312a1.094,1.094,0,0,0,1.462-.1,1.641,1.641,0,0,0,.662-1.768,5.89,5.89,0,0,0-.72-1.431,59.854,59.854,0,0,0-16.068-16.35,17.892,17.892,0,0,0-8.32-2.96,38.713,38.713,0,0,0-13.721.908,20.436,20.436,0,0,0-4.15,1.607,58.319,58.319,0,0,1-7.449,3.194,117.007,117.007,0,0,0-12.188,5.529c-0.485.236-.937,0.54-1.4,0.824a6.964,6.964,0,0,0-3.591,5.54c-0.1,1.2-.241,2.405-0.281,3.611C24.26,46.571,24.3,48.05,24.3,48.985c-0.073,1.752-.133,2.96-0.171,4.17A23.285,23.285,0,0,0,25.935,62.994ZM53.357,22.16c0.94-.113,1.874-0.272,2.81-0.411a35.632,35.632,0,0,1,13.3-.023,18.1,18.1,0,0,1,7.414,3.082C81.07,27.771,85.163,30.848,88.29,35a15.827,15.827,0,0,0,1.963,2.014,0.777,0.777,0,0,0,.736.068,20.748,20.748,0,0,0,5.173-5.6c0.558-.917,1.02-1.891,1.528-2.838,0.825-1.537,1.616-3.093,2.487-4.6a24.974,24.974,0,0,0,2.25-5.155,1.3,1.3,0,0,0-.6-1.357c-0.474-.256-0.944-0.529-1.439-0.741a30.069,30.069,0,0,1-5.6-3.232c-0.329-.235-0.686-0.433-1.008-0.676a9.348,9.348,0,0,0-8.81-1.549,16.9,16.9,0,0,1-3.195.521,10.866,10.866,0,0,1-5.177-.691c-1-.4-2.034-0.735-3.022-1.168a9.788,9.788,0,0,0-6.743-.28,17.367,17.367,0,0,0-4.818,2.077,34.755,34.755,0,0,0-9.5,8.665c-0.369.5-1.084,1.037-.637,1.728C52.216,22.707,52.857,22.22,53.357,22.16ZM94.383,37.538a17.311,17.311,0,0,0-1.365,1.487,1.168,1.168,0,0,0-.182,1.466c0.352,0.572.714,1.139,1.1,1.689a0.988,0.988,0,0,0,1.371.446c1.653-.916,3.3-1.852,4.954-2.756a14.25,14.25,0,0,0,4.553-3.941c0.652-.856,1.33-1.694,2.01-2.529a12.129,12.129,0,0,1,5.577-3.886c5.054-1.72,10.158-2.684,15.535-1.4,2.365,0.565,4.792.791,6.906,2.146,0.807,0.517,1.287.22,1.213-1.412a19.086,19.086,0,0,0-.431-1.983c-0.906-3.091-1.852-6.169-2.788-9.252a22.077,22.077,0,0,0-2.981-6.138,14.282,14.282,0,0,0-9.317-5.929,4.788,4.788,0,0,0-1.986.136,11.6,11.6,0,0,0-3.64,1.736,41.405,41.405,0,0,0-6.522,5.423,8.6,8.6,0,0,0-2.148,3.378,89.453,89.453,0,0,1-6.051,13.151A27.772,27.772,0,0,1,94.383,37.538Zm46.547-1.03a8.594,8.594,0,0,1,2.334,7.417q-0.2,1.395-.33,2.8a28.011,28.011,0,0,0,1.2,9.919,0.775,0.775,0,0,0,.6.447,9.529,9.529,0,0,0,1.942-.484,12.087,12.087,0,0,1,6.01-.508,54.928,54.928,0,0,1,7.618,1.147,10.452,10.452,0,0,0,1.2.195,1.29,1.29,0,0,0,1.279-.781c1.044-3.9,1.979-7.819,1.462-12.528a14.835,14.835,0,0,1,.124-4.593,9.665,9.665,0,0,0-.248-3.988,34.806,34.806,0,0,0-2.15-6.49,15.03,15.03,0,0,0-1.659-2.753,4.171,4.171,0,0,0-3.1-1.715,31.44,31.44,0,0,0-3.241-.1,14.969,14.969,0,0,0-2.825.272c-5.878,1.286-6.365,1.51-10.175,5.293-0.667.663-1.305,1.357-1.917,2.07a2.206,2.206,0,0,0-.018,2.291C139.638,35.137,140.289,35.82,140.93,36.508Zm10.249,22.024a11.884,11.884,0,0,0-6.581,1.725,2.029,2.029,0,0,0-.965,1.24c-0.313,1.03-.584,2.072-0.887,3.1a8.626,8.626,0,0,1-4.236,5.662,11.3,11.3,0,0,0-1.328.916,0.554,0.554,0,0,0,.015.954,41.006,41.006,0,0,0,9.243,3,22.856,22.856,0,0,0,6.081.043,31.186,31.186,0,0,1,15.753,3.206,12.875,12.875,0,0,1,4.284,3.006,4.494,4.494,0,0,1,1.033,4.506,16.884,16.884,0,0,1-1.436,3.326c-1.641,2.939-3.309,5.867-5.066,8.739a39.125,39.125,0,0,1-8.462,9.2,15.834,15.834,0,0,1-3.875,2.181c-1.478.663-2.935,1.369-4.4,2.071a0.635,0.635,0,0,0-.134,1c0.67,0.456,1.328.93,2,1.375a18.369,18.369,0,0,1,6.471,7.1,15.094,15.094,0,0,0,.821,1.385,1.141,1.141,0,0,0,1.063.441,1.027,1.027,0,0,0,.4-0.081,48.057,48.057,0,0,1,10.106-2.986,18.485,18.485,0,0,0,6.03-2.332q4.309-2.672,8.569-5.419a19.35,19.35,0,0,0,4.637-4.486c1.333-1.694,2.68-3.38,4.059-5.038a19.889,19.889,0,0,0,3.5-6.775,43.735,43.735,0,0,0,1.5-7.1,7.794,7.794,0,0,0-.337-3.975,27.063,27.063,0,0,1-.911-3.1,11.81,11.81,0,0,0-4.4-6.6c-1.172-.911-2.416-1.731-3.633-2.585q-3.819-2.675-7.644-5.342c-0.775-.542-1.533-1.11-2.324-1.63a10.076,10.076,0,0,0-6.119-1.839c-0.406.019-.815-0.023-1.22,0a14.462,14.462,0,0,1-6.71-1.338c-0.618-.275-1.255-0.507-1.868-0.793C160.085,59.368,155.666,58.814,151.179,58.531ZM194.62,115.4c-1.131-1.154-2.316-2.257-3.5-3.358a2.784,2.784,0,0,0-.774-0.343,7.01,7.01,0,0,0-1.012.588,90.076,90.076,0,0,1-9.748,6.543,26.719,26.719,0,0,1-9.015,3.525c-1.985.386-3.935,0.974-5.879,1.542a22.618,22.618,0,0,0-2.629,1.063,1.241,1.241,0,0,0-.826,1.594,52.26,52.26,0,0,0,6.389,14.742c0.074,0.112.145,0.226,0.218,0.34a13.814,13.814,0,0,1,1.917,3.981c0.364,1.4,1.335,1.51,2.532,1.23a19.584,19.584,0,0,0,5.3-1.993,61.464,61.464,0,0,1,6.827-3.548,15.326,15.326,0,0,0,5.183-3.827c2.492-2.654,4.951-5.338,7.413-8.018a6.468,6.468,0,0,0,.993-1.269,2.924,2.924,0,0,0,.46-1.508,28.54,28.54,0,0,0-2.669-9.655A6.348,6.348,0,0,0,194.62,115.4Zm-26.6,34.744a16.1,16.1,0,0,0-2.762-7.893,46.208,46.208,0,0,1-5.55-12.051,53.922,53.922,0,0,0-3.107-7.865c-2.076-4.232-5.665-6.748-9.77-8.7a1.761,1.761,0,0,0-1.178-.023,22.852,22.852,0,0,0-2.235.93,0.75,0.75,0,0,0-.245,1.043,82.057,82.057,0,0,1,4.6,7.592c0.543,1.081,1.1,2.154,1.63,3.244a20.963,20.963,0,0,1,1.255,14.924,24.474,24.474,0,0,1-2.552,6.338,14.9,14.9,0,0,1-6.429,5.967c-2.312,1.117-4.622,2.236-6.942,3.336a18.127,18.127,0,0,1-5.81,1.714,56.638,56.638,0,0,1-6.458.654,22.452,22.452,0,0,1-16.1-6.525c-0.835-.809-1.455-1.873-2.616-2.323a2.631,2.631,0,0,0,.181,1.043,25.5,25.5,0,0,0,1.6,2.323c1.3,1.722,2.669,3.389,3.906,5.15a8.776,8.776,0,0,0,4.431,3.321c3.815,1.37,7.564,2.923,11.327,4.433,1.5,0.6,2.964,1.319,4.463,1.939a51.839,51.839,0,0,0,9.648,3.085,35.016,35.016,0,0,1,7.3,2.407q2.6,1.144,5.2,2.272a30.279,30.279,0,0,0,5.411,1.7,6.36,6.36,0,0,0,5.357-1.223,9.947,9.947,0,0,0,2-1.985,19.334,19.334,0,0,0,4.136-10.754,70.631,70.631,0,0,0-.385-11.668C168.242,151.739,168.078,150.946,168.02,150.143Zm-64.353.316c0.029,0.011.05,0.031,0.078,0.042,0-.037-0.005-0.077-0.01-0.114Zm36.467,24.21a12.285,12.285,0,0,0-1.546-.484,58.438,58.438,0,0,1-11.511-3.831q-5.415-2.27-10.837-4.526a5.916,5.916,0,0,0-1.53-.512,1.378,1.378,0,0,0-1.078.362c-1.413,1.8-2.779,3.63-4.123,5.478-0.552.76-.974,1.613-1.522,2.376-1.33,1.853-2.708,3.672-4.03,5.53a0.815,0.815,0,0,0,.257.68c1.647,1.387,3.408,2.652,4.958,4.135,1.65,1.579,3.115,3.35,4.647,5.049,0.991,1.1,1.938,2.239,2.937,3.332a10.208,10.208,0,0,0,7.749,3.242,10.1,10.1,0,0,0,7.521-3.071,25.272,25.272,0,0,0,4.1-5.473,80.038,80.038,0,0,0,4.627-10.275c0.047-.125.071-0.259,0.11-0.385A1.219,1.219,0,0,0,140.134,174.669Zm-35.019-1.343a89.354,89.354,0,0,1,5.449-8.013,1.007,1.007,0,0,0-.045-1.447,21.5,21.5,0,0,1-4.2-4.882,17.063,17.063,0,0,0-1.211-1.617,64.239,64.239,0,0,1-5.446-7.521,9.609,9.609,0,0,0-2.572-3.069,1.49,1.49,0,0,0-.76-0.1,0.727,0.727,0,0,0-.367.149c-1.808,1.183-3.572,2.44-5.429,3.541a7.608,7.608,0,0,0-3.528,4.727c-0.182.645-.316,1.305-0.5,1.949-0.263.9-.529,1.807-0.84,2.694a6.862,6.862,0,0,1-3.018,3.667,24.558,24.558,0,0,1-7.515,2.953,6.468,6.468,0,0,1-5.4-1.059,15.673,15.673,0,0,1-2.683-2.436,15.372,15.372,0,0,1-3.438-6.768c-0.989-4.458-2.511-8.784-3.341-13.283a24.051,24.051,0,0,0-.794-2.706,1.362,1.362,0,0,0-1.268-.811c-0.406.006-.812,0.038-1.218,0.042a3.237,3.237,0,0,0-2.516,1.094c-1.161,1.313-2.315,2.633-3.511,3.914a9.29,9.29,0,0,0-2.437,5.833c-0.073.937-.142,1.878-0.152,2.817-0.022,2.149-.007,4.3-0.007,6.447H48.305q0,2.821,0,5.642a31.869,31.869,0,0,0,2.383,11.776,71.726,71.726,0,0,0,3.859,7.985,22.376,22.376,0,0,0,7.291,7.446,9.746,9.746,0,0,0,4.983,1.562c2.566,0.177,5.14.261,7.712,0.333a11.952,11.952,0,0,0,5.9-1.269c2.4-1.241,4.763-2.553,7.1-3.9a9.757,9.757,0,0,0,2.9-2.793c2.981-4.063,4.108-5.318,9.47-7.958a11.45,11.45,0,0,0,4.757-4.268C104.8,173.766,104.972,173.554,105.115,173.326Zm-58.647-26a8.677,8.677,0,0,1,1.725-3.595c0.334-.422.671-0.844,1.029-1.245,3.106-3.478,3.056-3.482-1.777-4.448a18.109,18.109,0,0,0-2.4-.347,55.579,55.579,0,0,1-6.439-.76,14.14,14.14,0,0,0-6.444.16,8.744,8.744,0,0,1-5.566-.093,6.364,6.364,0,0,0-1.2-.21,1.438,1.438,0,0,0-1.365.668,32.128,32.128,0,0,0-1.471,3.733,37.481,37.481,0,0,0-.862,13.184,18.346,18.346,0,0,0,1.718,5.766,41.6,41.6,0,0,1,2.487,6.793,6.054,6.054,0,0,0,4.572,4.651,36.773,36.773,0,0,0,4.717,1.153,75.341,75.341,0,0,1,9.09,2.037c0.648,0.171,1.307.3,1.964,0.435a0.744,0.744,0,0,0,.8-0.692c-0.227-1.183-.463-2.365-0.7-3.547l-0.132.012c-0.151-1.6-.417-3.2-0.432-4.8-0.045-4.694,0-9.389.029-14.084A23.088,23.088,0,0,1,46.468,147.321Zm5.519-72.528a41.961,41.961,0,0,0-8.9,2.76c-4.775,2.237-9.5,4.572-14.266,6.832a9.911,9.911,0,0,0-4.932,5.125,36.755,36.755,0,0,0-2.769,8.4,5.179,5.179,0,0,0,.244,2.763,15.708,15.708,0,0,0,2.3,4.242c1.3,1.718,2.635,3.413,3.921,5.142a10.774,10.774,0,0,0,6.162,4.337c0.656,0.16,1.3.379,1.944,0.581a15.23,15.23,0,0,1,5.631,3.125c0.506,0.446,1.042.863,1.517,1.34a11.763,11.763,0,0,0,8.066,3.3c0.945,0.052,1.9.008,2.544,0.008a11.579,11.579,0,0,0,6.662-.758,3.731,3.731,0,0,0,1.608-1.152,33.83,33.83,0,0,1,7.094-8.234,0.763,0.763,0,0,0-.251-1.3c-0.719-.372-1.46-0.7-2.175-1.084-3.616-1.921-5.447-5.083-6.274-8.933a3.836,3.836,0,0,1-.08-0.8c0-3.275,2.874-8.775,6.15-9.787a13.039,13.039,0,0,0,1.487-.623,0.557,0.557,0,0,0,.152-0.943c-2.031-1.337-4.093-2.628-6.087-4.018a33.762,33.762,0,0,1-3.468-2.781,14.528,14.528,0,0,1-4.089-6.4C53.742,74.57,52.966,74.579,51.987,74.793Zm102.744,31.769a13.785,13.785,0,0,0,3.036-1.993,35.469,35.469,0,0,0,8.111-9.485c1.106-2,2.309-3.955,3.435-5.947,0.53-.937,1.025-1.9,1.462-2.879a3,3,0,0,0-1.231-4.188,20.648,20.648,0,0,0-3.174-1.779,28.966,28.966,0,0,0-15.359-2.424c-2.6.4-6.174-.243-9.665-1.489q-3.631-1.3-7.249-2.629c-0.888-.328-1.757-0.708-2.625-1.086a4.164,4.164,0,0,0-4.565.622c-0.212.167-.428,0.33-0.643,0.492-0.858.652-1.074,1.127-.637,2.029a12.188,12.188,0,0,1,1.063,5.5c-0.008,1.747.007,3.5-.1,5.24a4.207,4.207,0,0,0,2.145,4.06,34.157,34.157,0,0,1,5.861,4.968,15.965,15.965,0,0,1,1.831,2.15,4.809,4.809,0,0,1,.211,5.332,19.171,19.171,0,0,1-3.29,4.08,12.531,12.531,0,0,0-2.912,3.839,0.911,0.911,0,0,0,.381,1.024,2.35,2.35,0,0,0,.362.163,48.362,48.362,0,0,0,9.333.254,12.7,12.7,0,0,0,4.257-1.275C148.1,109.624,151.439,108.143,154.731,106.562Zm-57.256,28.9c-0.941.085-1.871,0.315-2.812,0.353a5.372,5.372,0,0,1-4.886-2.34,12.035,12.035,0,0,1-1.271-2.053c-0.935-2.152-2.627-2.908-4.869-2.873-1.892.03-3.788,0-5.679-.075-1.21-.048-2.42-0.188-3.621-0.349a4.641,4.641,0,0,1-3.039-1.847,11.985,11.985,0,0,1-2.841-6.967c-0.033-.661-0.11-1.32-0.188-1.977a0.715,0.715,0,0,0-.385,0,2.2,2.2,0,0,0-.682.394,15.185,15.185,0,0,0-4.043,6.868c-0.462,1.681-.9,3.369-1.357,5.051a19.685,19.685,0,0,0-.574,5.42c0.137,0.83.286,2.3,0.635,3.73,1.337,5.47,2.749,10.921,4.11,16.385a13.885,13.885,0,0,0,2.525,5.439,18.322,18.322,0,0,0,2.241,2.309,4.258,4.258,0,0,0,3.791.975,19.581,19.581,0,0,0,7.084-2.882,3.882,3.882,0,0,0,1.5-1.851c0.333-.877.6-1.778,0.879-2.675s0.532-1.8.785-2.7a8.9,8.9,0,0,1,4.064-5.318q1.894-1.17,3.745-2.407a25.662,25.662,0,0,0,6.584-6.491,5.449,5.449,0,0,0,1.172-2.953,1.168,1.168,0,0,0-.853-1.183C98.821,135.43,98.143,135.4,97.475,135.46Zm5.3-3.7a24.888,24.888,0,0,1,7.067-3.9c1.125-.456,2.2-1.047,3.277-1.6a9.959,9.959,0,0,1,5.106-1.07c1.349,0.057,2.7.037,4.051,0.026a1.469,1.469,0,0,0,.992-1.14,23.2,23.2,0,0,0-.528-3.167,5.7,5.7,0,0,1,1.4-5.6c0.437-.512.911-0.995,1.38-1.479a9.415,9.415,0,0,0,1.816-2.653,20.533,20.533,0,0,1,4.239-5.869,27.193,27.193,0,0,0,2.144-2.421c1.358-1.731,1.334-3.122-.126-4.685a33.833,33.833,0,0,0-5.388-4.889c-0.666-.46-1.331-0.928-1.961-1.436a5.608,5.608,0,0,1-2.158-4.181c-0.07-1.2.04-2.418,0.017-3.626-0.034-1.744-.04-3.494-0.2-5.228a4.131,4.131,0,0,0-2.538-3.4,8.241,8.241,0,0,0-3.532-.825c-1.082-.022-2.165,0-3.248,0v0.2c-1.218,0-2.437.028-3.653-.008a4.34,4.34,0,0,1-3.214-1.516c-0.713-.806-1.358-1.674-1.99-2.544a24.836,24.836,0,0,0-4.834-4.866,8.177,8.177,0,0,0-1.409-.778,1.387,1.387,0,0,0-1.475.376A21.918,21.918,0,0,0,96.594,67.9a10.561,10.561,0,0,1-3.985,4.463A23.083,23.083,0,0,1,82.069,76.3a12.942,12.942,0,0,1-5.62-.53,8.558,8.558,0,0,0-2.385-.382,1.339,1.339,0,0,0-1.288.821,5.342,5.342,0,0,0-.553,1.5,16.978,16.978,0,0,0,.25,7.193,14.291,14.291,0,0,1,.549,2.76,3.58,3.58,0,0,1-2.441,4.156c-0.868.37-1.778,0.647-2.676,0.944a6.072,6.072,0,0,0-3.44,2.667c-2.564,4.241-2.52,5.924.176,9.993a7.306,7.306,0,0,0,3.016,2.624c0.977,0.461,1.971.9,2.9,1.453a3.758,3.758,0,0,1,1.78,4.157,13.737,13.737,0,0,1-.664,2.321c-1.2,2.895-.581,5.518,1.084,8.023a4.1,4.1,0,0,0,3.379,1.934c1.082,0.051,2.168.021,3.252,0.039,1.762,0.027,3.524.041,5.284,0.1a6.121,6.121,0,0,1,5.615,3.357,24.617,24.617,0,0,0,1.466,2.417,2.937,2.937,0,0,0,2.747,1.426c2.157-.188,4.315-0.4,6.458-0.705A3.746,3.746,0,0,0,102.777,131.761Zm-4.865-20.779c-0.477.465-.84,1.052-1.338,1.489a3.72,3.72,0,0,1-4.834.054,4.706,4.706,0,0,1-1.821-4.252c0.05-.658.309-1.3,0.391-1.958a0.706,0.706,0,0,0-.4-0.57,24,24,0,0,1-2.791-.324,4.437,4.437,0,0,1-1.966-7.631,8.1,8.1,0,0,1,1.617-1.19,11.041,11.041,0,0,1,1.485-.609,0.481,0.481,0,0,0,.325-0.658c-0.233-.623-0.522-1.226-0.745-1.852A3.564,3.564,0,0,1,89,89.491a5.042,5.042,0,0,1,2.89-1.337,6.129,6.129,0,0,1,5.187,1.713c0.651,0.6.786,0.609,1.365,0.072,1.847-1.717,3.943-1.566,6.057-.79a3.427,3.427,0,0,1,2.186,4.222,3.45,3.45,0,0,0-.436,2.2,18.71,18.71,0,0,1,2.325.437,4.74,4.74,0,0,1,3.128,3.43,3.644,3.644,0,0,1-2.009,4.362,16.431,16.431,0,0,1-2.317.67c-0.862.228-.953,0.332-0.723,1,0.219,0.632.506,1.245,0.669,1.89a3.4,3.4,0,0,1-.52,2.691,5.188,5.188,0,0,1-5.685,2.057c-0.876-.309-1.656-0.877-2.505-1.27A0.79,0.79,0,0,0,97.912,110.982Zm3.783-1.342a2.439,2.439,0,0,0,2.794-.895,1.38,1.38,0,0,0,.064-1.469,2.242,2.242,0,0,0-2.242-1.213,1.914,1.914,0,0,0-1.847,1.772A1.785,1.785,0,0,0,101.7,109.64Zm0.576-7.313a5.551,5.551,0,0,1,.22-4.3,0.709,0.709,0,0,0-.326-0.61,5.468,5.468,0,0,1-3.928-2.561,0.636,0.636,0,0,0-1.022-.029,7.481,7.481,0,0,1-4.55,2.442,0.647,0.647,0,0,0-.64.8c0.085,0.394.205,0.779,0.309,1.168a9.107,9.107,0,0,1-.123,4.389c-0.145.556,0.017,0.743,0.672,0.674a5.134,5.134,0,0,1,4.178,1.09c0.68,0.589.842,0.546,1.378,0.021a7.574,7.574,0,0,1,3.406-2.1A0.729,0.729,0,0,0,102.271,102.327Zm-8.13,4.613a1.443,1.443,0,0,0-1.323.724,2.033,2.033,0,0,0-.156,1.892,1.7,1.7,0,0,0,1.477,1.137,1.412,1.412,0,0,0,1.257-1.3,6.906,6.906,0,0,0-.088-1.561A1.262,1.262,0,0,0,94.142,106.94Zm0.445-13.208a1.692,1.692,0,0,0,.623-1.741,2.107,2.107,0,0,0-1.489-1.184c-0.259-.048-0.521-0.076-1.037-0.15a10.691,10.691,0,0,0-1.64.493,1.46,1.46,0,0,0-.493,2.041A2.5,2.5,0,0,0,94.586,93.732ZM102,94.466a2.273,2.273,0,0,0,2.125-1.951,0.966,0.966,0,0,0-.3-0.678,2.841,2.841,0,0,0-1.78-.741c-0.805-.078-1.486.58-1.487,1.779a3.812,3.812,0,0,0,.45,1.11A1.36,1.36,0,0,0,102,94.466Zm5.443,7.363c0.237-.065.625-0.147,0.995-0.278a1.615,1.615,0,0,0,.728-1.311,2.088,2.088,0,0,0-2.9-1.721,3.075,3.075,0,0,0-1.478,1.251,1.283,1.283,0,0,0,.261,1.431A3.439,3.439,0,0,0,107.444,101.829Zm-18.775-2.95a2.074,2.074,0,0,0-1.76.821,1.9,1.9,0,0,0-.416,2.209,2.239,2.239,0,0,0,1.98,1.178,1.432,1.432,0,0,0,1.028-.49,2.813,2.813,0,0,0-.153-3.346A2.161,2.161,0,0,0,88.669,98.879Zm17.425-3.3,0.184,0.091c-0.013-.035-0.018-0.067-0.028-0.1l-0.049-.008Zm-3.208,54.228a0.736,0.736,0,0,0,.756.576A0.668,0.668,0,0,0,102.886,149.809Zm-0.148-.343,0,0.348a1.029,1.029,0,0,1,.145,0c-0.013-.032-0.029-0.061-0.041-0.094Zm1,0.921a0.558,0.558,0,0,1-.092,0c0.007,0.026.019,0.045,0.025,0.074C103.667,150.459,103.735,150.387,103.734,150.387Zm17.629,6.4a34.223,34.223,0,0,0,8.862-.9,19.825,19.825,0,0,0,3.79-1.39c2.094-.939,4.137-1.99,6.218-2.959a12.623,12.623,0,0,0,5.822-5.413,24.281,24.281,0,0,0,2.908-10.385,14.471,14.471,0,0,0-1.091-6.307,51.542,51.542,0,0,0-7.6-13.249,2.59,2.59,0,0,0-2.069-1.081c-1.489-.021-2.977-0.082-4.614-0.131a12.925,12.925,0,0,1-2.669-.31c-1.891-.6-3.116.254-4.216,1.581-0.257.311-.535,0.606-0.8,0.915a3.27,3.27,0,0,0-.734,3.009c0.157,0.653.354,1.3,0.519,1.946,0.066,0.26.1,0.528,0.14,0.793,0.5,3.2-.937,4.962-4.117,5a26.64,26.64,0,0,1-2.838-.134,9.438,9.438,0,0,0-5.467,1.151c-1.429.756-2.917,1.411-4.411,2.034a16.3,16.3,0,0,0-3.531,1.955,5.234,5.234,0,0,0-2.487,3.939A10.616,10.616,0,0,1,101.2,141.3a1.385,1.385,0,0,0,.076,1.508,9.431,9.431,0,0,0,.879,1.348c2.221,2.53,4.316,5.193,6.74,7.515A18.642,18.642,0,0,0,121.363,156.79ZM139,38.165c-1.773-1.847-3.591-3.654-5.4-5.471a5.32,5.32,0,0,0-2.839-1.48,65.474,65.474,0,0,0-7.215-1.107A24.588,24.588,0,0,0,112.114,32.4a8.853,8.853,0,0,0-3.183,2.453c-0.794.916-1.544,1.871-2.276,2.837a16.558,16.558,0,0,1-5.206,4.426c-0.943.529-1.9,1.026-2.852,1.545a12.831,12.831,0,0,0-3.228,2.418c-1.526,1.619-1.873,1.931.115,3.4a17.74,17.74,0,0,1,5.082,6.207c1.679,3.217,3.329,6.455,4.835,9.755a30.209,30.209,0,0,0,4.08,5.98,2.708,2.708,0,0,0,2.192.879c1.079,0.019,2.161-.1,3.242-0.158a15.008,15.008,0,0,1,6.423.54,2.936,2.936,0,0,0,3.01-.646,20.1,20.1,0,0,1,2.348-1.58,5.345,5.345,0,0,1,4.3-.615c0.392,0.107.773,0.248,1.162,0.362a2.307,2.307,0,0,0,1.946-.226c1.149-.71,2.3-1.421,3.454-2.12a5.513,5.513,0,0,0,2.292-2.734,25.889,25.889,0,0,0,1.6-7.05,7.215,7.215,0,0,0-.1-1.6,11.634,11.634,0,0,0-.262-1.59,24.683,24.683,0,0,1-.314-11.178A6.029,6.029,0,0,0,139,38.165ZM50.763,61.322c0.925,0.982,1.855,1.961,2.738,2.98a9.531,9.531,0,0,1,2.426,5.439c0.126,1.337.392,2.663,0.506,4A9.872,9.872,0,0,0,58.816,79.2a16.211,16.211,0,0,0,3.559,3.285c1.8,1.2,3.6,2.4,5.431,3.55,0.631,0.4,1.335,1.2,2.09.641,0.579-.43.068-1.243-0.083-1.881a16.747,16.747,0,0,1,.378-9.142,6.53,6.53,0,0,1,.963-1.75,2.8,2.8,0,0,1,2.066-1.14,7.954,7.954,0,0,1,3.21.346c6.057,1.9,11.16-.254,15.918-3.737a6.571,6.571,0,0,0,1.528-1.853c0.571-.91,1-1.905,1.529-2.843,0.941-1.671,2.269-2.646,4.318-2.287a2.442,2.442,0,0,0,.8-0.028,0.394,0.394,0,0,0,.319-0.6c-1.126-2.142-2.2-4.318-3.446-6.392a13.039,13.039,0,0,0-5.951-5.3,48.918,48.918,0,0,1-5.631-3.208,58.234,58.234,0,0,0-13.145-6.278,30.287,30.287,0,0,1-5.5-2.575c-1.771-.986-3.545-1.973-5.357-2.882a9.289,9.289,0,0,0-8.6.224,5.112,5.112,0,0,0-2.925,3.66,48.215,48.215,0,0,0-.857,4.761c-0.363,3.339-.616,6.691-0.835,9.15,0,1.566,0,2.238,0,2.909A7.689,7.689,0,0,0,50.763,61.322ZM31.808,134.6a15.392,15.392,0,0,1,7.254-.148,35.222,35.222,0,0,0,4.833.587,44.117,44.117,0,0,1,7.2,1.217,16.081,16.081,0,0,0,6.445.362,1.325,1.325,0,0,0,1.042-1.071c0.035-.535.063-1.072,0.073-1.608a15.637,15.637,0,0,1,.689-4.865c0.323-1.209.574-2.117,0.807-3.028a0.759,0.759,0,0,0-.822-1.024,32.884,32.884,0,0,1-12.1-.32,10.123,10.123,0,0,1-4.715-2.24c-0.94-.771-1.851-1.576-2.768-2.373a12.372,12.372,0,0,0-4.93-2.717c-0.914-.246-1.81-0.56-2.714-0.845A10.813,10.813,0,0,1,26.764,113q-3.027-3.79-5.92-7.686a22.812,22.812,0,0,1-2.614-5.874,0.606,0.606,0,0,0-.992-0.045c-0.279.293-.579,0.568-0.827,0.885a47.214,47.214,0,0,1-5.253,5.606,23.3,23.3,0,0,0-3.873,4.648c-1.232,1.928-2.587,3.78-3.844,5.693a9.022,9.022,0,0,0-1.524,5.346,8.253,8.253,0,0,0,1.035,3.856,12.9,12.9,0,0,0,8.135,6.241,20.92,20.92,0,0,0,4.791.812,36.925,36.925,0,0,1,10.76,1.906A8.306,8.306,0,0,0,31.808,134.6Z"/>
</svg>